# xmcd
#
# Track frame offsets:
#	150
#	26940
#	44948
#	74375
#	92955
#	119280
#	144355
#	163658
#	184398
#	205558
#
# Disc length: 3019 seconds
#
# Revision: 1
# Processed by: cddbd v1.5.2PL0 Copyright (c) Steve Scherf et al.
# Submitted via: audiograbber 1.83.01
#
DISCID=980bc90a
DTITLE=Deep Purple - The Battle Rages On [CD-R]
DYEAR=1993
DGENRE=HardRock
TTITLE0=The Battle Rages On
TTITLE1=Lick It Up
TTITLE2=Anya
TTITLE3=Talk About Love
TTITLE4=Time To Kill
TTITLE5=Ramshackle Man
TTITLE6=A Twist In The Tale
TTITLE7=Nasty Piece Of Work
TTITLE8=Solitaire
TTITLE9=One Man's Meat
EXTD=
EXTT0=
EXTT1=
EXTT2=
EXTT3=
EXTT4=
EXTT5=
EXTT6=
EXTT7=
EXTT8=
EXTT9=
PLAYORDER=
